#Comment line ignore any data following # character 
#Hierarchical Translation and Rotation (.htr) file 
[Header]	
#Header keywords are followed by a single value 
FileType HTR		#Single word string
DataType HTRS		#Translation followed by rotation and scale data
FileVersion 1		#integer
NumSegments 84		#integer
NumFrames 2		#integer
DataFrameRate 30		#integer, data frame rate in this file
EulerRotationOrder ZYX
CalibrationUnits mm
RotationUnits Degrees
GlobalAxisofGravity Y
BoneLengthAxis Y
ScaleFactor 1.00
[SegmentNames&Hierarchy]
#CHILD	PARENT
MASTER GLOBAL
root MASTER
chest root
L_mid_tent01 root
R_mid_tent01 root
spine01 root
Bip01_Neck chest
L_humerus chest
R_humerus chest
weapon_bone chest
Bip01_Head Bip01_Neck
eye_left_bone Bip01_Head
eye_right_bone Bip01_Head
L_forearm L_humerus
L_front_hand L_forearm
L_weapon_bone L_forearm
L_front_hand01_01 L_front_hand
L_front_hand02_01 L_front_hand
L_front_hand03_01 L_front_hand
L_front_hand01_02 L_front_hand01_01
L_front_hand02_02 L_front_hand02_01
L_front_hand03_02 L_front_hand03_01
R_forearm R_humerus
R_front_hand R_forearm
R_weapon_bone R_forearm
R_front_hand01_01 R_front_hand
R_front_hand02_01 R_front_hand
R_front_hand03_01 R_front_hand
R_front_hand01_02 R_front_hand01_01
R_front_hand02_02 R_front_hand02_01
R_front_hand03_02 R_front_hand03_01
null_rope01_connect L_mid_tent01
Rope1_Seg01 null_rope01_connect
Rope1_Seg02 Rope1_Seg01
Rope1_Seg03 Rope1_Seg02
Rope1_Seg04 Rope1_Seg03
Rope1_Seg05 Rope1_Seg04
Rope1_Seg06 Rope1_Seg05
Rope1_Seg07 Rope1_Seg06
Rope1_Seg09 Rope1_Seg07
L_mid_hand01 Rope1_Seg09
L_mid_hand02 Rope1_Seg09
L_mid_hand03 Rope1_Seg09
null_rope02_connect R_mid_tent01
Rope2_Seg01 null_rope02_connect
Rope2_Seg02 Rope2_Seg01
Rope2_Seg03 Rope2_Seg02
Rope2_Seg04 Rope2_Seg03
Rope2_Seg05 Rope2_Seg04
Rope2_Seg06 Rope2_Seg05
Rope2_Seg07 Rope2_Seg06
Rope2_Seg09 Rope2_Seg07
R_mid_hand01 Rope2_Seg09
R_mid_hand02 Rope2_Seg09
R_mid_hand03 Rope2_Seg09
spine02 spine01
spine03 spine02
pelvis spine03
null_rope03_connect pelvis
null_rope04_connect pelvis
Rope3_Seg01 null_rope03_connect
Rope3_Seg02 Rope3_Seg01
Rope3_Seg03 Rope3_Seg02
Rope3_Seg04 Rope3_Seg03
Rope3_Seg05 Rope3_Seg04
Rope3_Seg06 Rope3_Seg05
Rope3_Seg07 Rope3_Seg06
Rope3_Seg08 Rope3_Seg07
Rope3_Seg09 Rope3_Seg08
R_rear_hand01 Rope3_Seg09
R_rear_hand02 Rope3_Seg09
R_rear_hand03 Rope3_Seg09
Rope4_Seg01 null_rope04_connect
Rope4_Seg02 Rope4_Seg01
Rope4_Seg03 Rope4_Seg02
Rope4_Seg04 Rope4_Seg03
Rope4_Seg05 Rope4_Seg04
Rope4_Seg06 Rope4_Seg05
Rope4_Seg07 Rope4_Seg06
Rope4_Seg08 Rope4_Seg07
Rope4_Seg09 Rope4_Seg08
L_rear_hand01 Rope4_Seg09
L_rear_hand02 Rope4_Seg09
L_rear_hand03 Rope4_Seg09
[BasePosition]
#SegmentName Tx, Ty, Tz, Rx, Ry, Rz, BoneLength
MASTER 0.000000 0.000000 0.000000 -90.000000 0.000000 0.000000 10.000000 
root 0.000000 0.000000 0.000000 0.000000 0.000000 0.000000 10.000000 
chest 0.000000 0.000000 0.000000 0.000000 0.000000 0.000000 10.000000 
L_mid_tent01 0.000000 0.000000 0.000000 0.000000 0.000000 0.000000 10.000000 
R_mid_tent01 0.000000 0.000000 0.000000 0.000000 0.000000 0.000000 10.000000 
spine01 0.000000 0.000000 0.000000 0.000000 0.000000 0.000000 10.000000 
Bip01_Neck 0.000000 0.000000 0.000000 0.000000 0.000000 0.000000 10.000000 
L_humerus 0.000000 0.000000 0.000000 0.000000 0.000000 0.000000 10.000000 
R_humerus 0.000000 0.000000 0.000000 0.000000 0.000000 0.000000 10.000000 
weapon_bone 0.000000 0.000000 0.000000 0.000000 0.000000 0.000000 10.000000 
Bip01_Head 0.000000 0.000000 0.000000 0.000000 0.000000 0.000000 10.000000 
eye_left_bone 0.000000 0.000000 0.000000 0.000000 0.000000 0.000000 10.000000 
eye_right_bone 0.000000 0.000000 0.000000 0.000000 0.000000 0.000000 10.000000 
L_forearm 0.000000 0.000000 0.000000 0.000000 0.000000 0.000000 10.000000 
L_front_hand 0.000000 0.000000 0.000000 0.000000 0.000000 0.000000 10.000000 
L_weapon_bone 0.000000 0.000000 0.000000 0.000000 0.000000 0.000000 10.000000 
L_front_hand01_01 0.000000 0.000000 0.000000 0.000000 0.000000 0.000000 10.000000 
L_front_hand02_01 0.000000 0.000000 0.000000 0.000000 0.000000 0.000000 10.000000 
L_front_hand03_01 0.000000 0.000000 0.000000 0.000000 0.000000 0.000000 10.000000 
L_front_hand01_02 0.000000 0.000000 0.000000 0.000000 0.000000 0.000000 10.000000 
L_front_hand02_02 0.000000 0.000000 0.000000 0.000000 0.000000 0.000000 10.000000 
L_front_hand03_02 0.000000 0.000000 0.000000 0.000000 0.000000 0.000000 10.000000 
R_forearm 0.000000 0.000000 0.000000 0.000000 0.000000 0.000000 10.000000 
R_front_hand 0.000000 0.000000 0.000000 0.000000 0.000000 0.000000 10.000000 
R_weapon_bone 0.000000 0.000000 0.000000 0.000000 0.000000 0.000000 10.000000 
R_front_hand01_01 0.000000 0.000000 0.000000 0.000000 0.000000 0.000000 10.000000 
R_front_hand02_01 0.000000 0.000000 0.000000 0.000000 0.000000 0.000000 10.000000 
R_front_hand03_01 0.000000 0.000000 0.000000 0.000000 0.000000 0.000000 10.000000 
R_front_hand01_02 0.000000 0.000000 0.000000 0.000000 0.000000 0.000000 10.000000 
R_front_hand02_02 0.000000 0.000000 0.000000 0.000000 0.000000 0.000000 10.000000 
R_front_hand03_02 0.000000 0.000000 0.000000 0.000000 0.000000 0.000000 10.000000 
null_rope01_connect 0.000000 0.000000 0.000000 0.000000 0.000000 0.000000 10.000000 
Rope1_Seg01 0.000000 0.000000 0.000000 0.000000 0.000000 0.000000 10.000000 
Rope1_Seg02 0.000000 0.000000 0.000000 0.000000 0.000000 0.000000 10.000000 
Rope1_Seg03 0.000000 0.000000 0.000000 0.000000 0.000000 0.000000 10.000000 
Rope1_Seg04 0.000000 0.000000 0.000000 0.000000 0.000000 0.000000 10.000000 
Rope1_Seg05 0.000000 0.000000 0.000000 0.000000 0.000000 0.000000 10.000000 
Rope1_Seg06 0.000000 0.000000 0.000000 0.000000 0.000000 0.000000 10.000000 
Rope1_Seg07 0.000000 0.000000 0.000000 0.000000 0.000000 0.000000 10.000000 
Rope1_Seg09 0.000000 0.000000 0.000000 0.000000 0.000000 0.000000 10.000000 
L_mid_hand01 0.000000 0.000000 0.000000 0.000000 0.000000 0.000000 10.000000 
L_mid_hand02 0.000000 0.000000 0.000000 0.000000 0.000000 0.000000 10.000000 
L_mid_hand03 0.000000 0.000000 0.000000 0.000000 0.000000 0.000000 10.000000 
null_rope02_connect 0.000000 0.000000 0.000000 0.000000 0.000000 0.000000 10.000000 
Rope2_Seg01 0.000000 0.000000 0.000000 0.000000 0.000000 0.000000 10.000000 
Rope2_Seg02 0.000000 0.000000 0.000000 0.000000 0.000000 0.000000 10.000000 
Rope2_Seg03 0.000000 0.000000 0.000000 0.000000 0.000000 0.000000 10.000000 
Rope2_Seg04 0.000000 0.000000 0.000000 0.000000 0.000000 0.000000 10.000000 
Rope2_Seg05 0.000000 0.000000 0.000000 0.000000 0.000000 0.000000 10.000000 
Rope2_Seg06 0.000000 0.000000 0.000000 0.000000 0.000000 0.000000 10.000000 
Rope2_Seg07 0.000000 0.000000 0.000000 0.000000 0.000000 0.000000 10.000000 
Rope2_Seg09 0.000000 0.000000 0.000000 0.000000 0.000000 0.000000 10.000000 
R_mid_hand01 0.000000 0.000000 0.000000 0.000000 0.000000 0.000000 10.000000 
R_mid_hand02 0.000000 0.000000 0.000000 0.000000 0.000000 0.000000 10.000000 
R_mid_hand03 0.000000 0.000000 0.000000 0.000000 0.000000 0.000000 10.000000 
spine02 0.000000 0.000000 0.000000 0.000000 0.000000 0.000000 10.000000 
spine03 0.000000 0.000000 0.000000 0.000000 0.000000 0.000000 10.000000 
pelvis 0.000000 0.000000 0.000000 0.000000 0.000000 0.000000 10.000000 
null_rope03_connect 0.000000 0.000000 0.000000 0.000000 0.000000 0.000000 10.000000 
null_rope04_connect 0.000000 0.000000 0.000000 0.000000 0.000000 0.000000 10.000000 
Rope3_Seg01 0.000000 0.000000 0.000000 0.000000 0.000000 0.000000 10.000000 
Rope3_Seg02 0.000000 0.000000 0.000000 0.000000 0.000000 0.000000 10.000000 
Rope3_Seg03 0.000000 0.000000 0.000000 0.000000 0.000000 0.000000 10.000000 
Rope3_Seg04 0.000000 0.000000 0.000000 0.000000 0.000000 0.000000 10.000000 
Rope3_Seg05 0.000000 0.000000 0.000000 0.000000 0.000000 0.000000 10.000000 
Rope3_Seg06 0.000000 0.000000 0.000000 0.000000 0.000000 0.000000 10.000000 
Rope3_Seg07 0.000000 0.000000 0.000000 0.000000 0.000000 0.000000 10.000000 
Rope3_Seg08 0.000000 0.000000 0.000000 0.000000 0.000000 0.000000 10.000000 
Rope3_Seg09 0.000000 0.000000 0.000000 0.000000 0.000000 0.000000 10.000000 
R_rear_hand01 0.000000 0.000000 0.000000 0.000000 0.000000 0.000000 10.000000 
R_rear_hand02 0.000000 0.000000 0.000000 0.000000 0.000000 0.000000 10.000000 
R_rear_hand03 0.000000 0.000000 0.000000 0.000000 0.000000 0.000000 10.000000 
Rope4_Seg01 0.000000 0.000000 0.000000 0.000000 0.000000 0.000000 10.000000 
Rope4_Seg02 0.000000 0.000000 0.000000 0.000000 0.000000 0.000000 10.000000 
Rope4_Seg03 0.000000 0.000000 0.000000 0.000000 0.000000 0.000000 10.000000 
Rope4_Seg04 0.000000 0.000000 0.000000 0.000000 0.000000 0.000000 10.000000 
Rope4_Seg05 0.000000 0.000000 0.000000 0.000000 0.000000 0.000000 10.000000 
Rope4_Seg06 0.000000 0.000000 0.000000 0.000000 0.000000 0.000000 10.000000 
Rope4_Seg07 0.000000 0.000000 0.000000 0.000000 0.000000 0.000000 10.000000 
Rope4_Seg08 0.000000 0.000000 0.000000 0.000000 0.000000 0.000000 10.000000 
Rope4_Seg09 0.000000 0.000000 0.000000 0.000000 0.000000 0.000000 10.000000 
L_rear_hand01 0.000000 0.000000 0.000000 0.000000 0.000000 0.000000 10.000000 
L_rear_hand02 0.000000 0.000000 0.000000 0.000000 0.000000 0.000000 10.000000 
L_rear_hand03 0.000000 0.000000 0.000000 0.000000 0.000000 0.000000 10.000000 
#Beginning of Data. Separated by tabs
#Fr	Tx	Ty	Tz	Rx	Ry	Rz	SF
[MASTER]
26 1832.275391 -5024.031250 0.000000 0.000528 -0.002287 -116.003304 5347.721191
27 1865.148682 -5239.499023 0.000000 0.000542 -0.002284 -116.719208 5561.576172
[root]
26 -62.822231 100.014572 1112.714478 -88.775597 -5.063249 179.539780 1118.965210
27 -62.822170 102.525703 1123.617310 -88.095329 -4.928703 179.588959 1130.032715
[chest]
26 -84.512650 -34.090519 0.000000 -2.430158 0.604257 156.244186 91.129311
27 -84.512650 -34.090519 0.000000 -1.852060 0.236143 156.286057 91.129311
[L_mid_tent01]
26 23.228750 24.509907 -223.761200 -8.432985 10.645749 3.086618 226.294907
27 23.228750 24.509907 -223.761200 -9.353504 10.947851 -0.148958 226.294907
[R_mid_tent01]
26 23.228794 24.509907 226.238495 -161.385849 -10.365147 -0.398284 228.744751
27 23.228794 24.509907 226.238495 -161.912292 -16.082230 -2.812265 228.744751
[spine01]
26 -0.361383 -0.195265 0.000000 0.001815 0.001488 11.320962 0.410763
27 -0.361383 -0.195265 0.000000 0.001815 0.001488 11.320962 0.410763
[Bip01_Neck]
26 165.484543 71.581718 0.000119 175.896118 1.177290 24.871183 180.302734
27 165.484543 71.581718 0.000119 175.896118 1.177290 24.871183 180.302734
[L_humerus]
26 -13.983130 -135.272980 -120.471481 120.720192 76.357620 -140.324326 181.680161
27 -13.983130 -135.272980 -120.471481 99.212532 79.417160 -160.934128 181.680161
[R_humerus]
26 -13.983309 -135.273102 125.287651 -157.125397 -72.359818 -105.518127 184.909012
27 -13.983309 -135.273102 125.287651 -153.610840 -77.836548 -108.522873 184.909012
[weapon_bone]
26 235.964890 -300.705902 0.000000 0.000000 -89.951546 -128.212341 382.234833
27 235.964890 -300.705902 0.000000 0.000000 -89.951546 -128.212341 382.234833
[Bip01_Head]
26 201.313736 211.516769 15.929725 -8.780374 3.773619 -64.618164 292.438568
27 201.313736 211.516769 15.929725 -7.996716 4.019879 -64.520020 292.438568
[eye_left_bone]
26 -24.626970 125.451866 -64.772606 0.000000 -90.000000 -99.840431 143.318359
27 -24.626970 125.451866 -64.772606 0.000000 -90.000000 -99.840431 143.318359
[eye_right_bone]
26 -24.626970 125.451866 64.327362 0.000000 -89.965736 80.156380 143.117676
27 -24.626970 125.451866 64.327362 0.000000 -89.965736 80.156380 143.117676
[L_forearm]
26 322.776093 0.000000 -0.000119 0.000357 -0.002320 -107.506004 322.776093
27 322.776093 0.000000 -0.000119 0.000357 -0.002320 -107.506004 322.776093
[L_front_hand]
26 241.149185 -0.042021 -3.300071 -179.431961 -2.195943 -5.942918 241.171753
27 241.149185 -0.042021 -3.300071 -179.431961 -2.195943 -5.942918 241.171753
[L_weapon_bone]
26 156.183838 0.000000 0.000000 0.000014 0.000007 0.000001 156.183838
27 156.183838 0.000000 0.000000 0.000014 0.000007 0.000001 156.183838
[L_front_hand01_01]
26 86.095154 20.947098 -0.655860 0.139491 -0.584553 24.181786 88.609184
27 86.095154 20.947098 -0.655860 0.139491 -0.584553 24.181786 88.609184
[L_front_hand02_01]
26 86.935165 -11.437475 24.513514 119.190460 -21.905661 -12.119137 91.046425
27 86.935165 -11.437475 24.513514 119.190460 -21.905655 -12.119137 91.046425
[L_front_hand03_01]
26 86.637497 -14.123976 -20.424902 -120.437630 20.554031 -14.327168 90.126129
27 86.637497 -14.123976 -20.424902 -120.437630 20.554031 -14.327168 90.126129
[L_front_hand01_02]
26 71.020905 -0.000179 0.000030 0.000334 -0.002323 -106.379684 71.020905
27 71.020905 -0.000179 0.000030 0.000334 -0.002323 -106.379684 71.020905
[L_front_hand02_02]
26 71.020927 -0.000119 0.000060 0.000334 -0.002323 -106.379684 71.020927
27 71.020927 -0.000119 0.000060 0.000334 -0.002323 -106.379684 71.020927
[L_front_hand03_02]
26 71.020905 -0.000060 0.000060 0.000334 -0.002323 -106.379684 71.020905
27 71.020905 -0.000060 0.000060 0.000334 -0.002323 -106.379684 71.020905
[R_forearm]
26 322.776428 -0.000060 0.000030 0.196737 0.083011 -114.368637 322.776428
27 322.776428 -0.000060 0.000030 0.196737 0.083011 -114.368637 322.776428
[R_front_hand]
26 238.847015 -0.006795 2.210259 -0.341870 1.692706 -0.151780 238.857239
27 238.847015 -0.006795 2.210259 -0.341870 1.692706 -0.151780 238.857239
[R_weapon_bone]
26 155.664093 0.002503 -0.000030 0.003487 0.001180 -90.988930 155.664078
27 155.664093 0.002503 -0.000030 0.003487 0.001180 -90.988930 155.664078
[R_front_hand01_01]
26 87.624611 14.231146 22.918642 -119.218056 -22.033409 12.303375 91.683487
27 87.624611 14.231146 22.918642 -119.218056 -22.033409 12.303375 91.683487
[R_front_hand02_01]
26 89.356956 14.367283 -19.491137 120.545532 20.947184 14.823009 92.579636
27 89.356956 14.367283 -19.491137 120.545532 20.947184 14.823009 92.579636
[R_front_hand03_01]
26 87.286232 -22.307278 -0.143439 -0.231628 -0.392922 -24.567768 90.091743
27 87.286232 -22.307278 -0.143439 -0.231628 -0.392922 -24.567768 90.091743
[R_front_hand01_02]
26 71.020905 0.000060 0.000119 0.002323 -0.000334 106.381714 71.020905
27 71.020905 0.000060 0.000119 0.002323 -0.000334 106.381714 71.020905
[R_front_hand02_02]
26 71.020844 -0.000030 -0.000119 0.002323 -0.000334 106.381714 71.020836
27 71.020844 -0.000030 -0.000119 0.002323 -0.000334 106.381714 71.020836
[R_front_hand03_02]
26 71.020905 0.000000 0.000030 0.002323 -0.000334 106.381714 71.020905
27 71.020905 0.000000 0.000030 0.002323 -0.000334 106.381714 71.020905
[null_rope01_connect]
26 328.732483 0.000000 -0.000238 101.256638 52.210369 10.673690 328.732483
27 328.732483 0.000000 -0.000238 100.333076 50.898460 12.706614 328.732483
[Rope1_Seg01]
26 0.000130 0.000000 -0.000013 113.631287 -22.201174 -24.735918 0.000131
27 0.000135 0.000000 -0.000010 116.085106 -21.215200 -32.771080 0.000135
[Rope1_Seg02]
26 139.999863 -0.000179 0.000000 0.180461 4.810285 0.014184 139.999863
27 139.999863 -0.000179 0.000000 0.651517 7.356164 -0.838638 139.999863
[Rope1_Seg03]
26 139.999924 0.000060 -0.000060 -0.077759 6.612786 -0.002839 139.999924
27 139.999924 0.000060 -0.000060 0.085185 9.713302 -1.236978 139.999924
[Rope1_Seg04]
26 139.999924 -0.000060 -0.000119 -0.771828 9.389472 0.007734 139.999924
27 139.999924 -0.000060 -0.000119 -1.205536 12.297890 -2.476420 139.999924
[Rope1_Seg05]
26 139.999832 0.000119 -0.000060 -2.184711 12.121015 -3.578570 139.999832
27 139.999832 0.000119 -0.000060 -2.235266 11.871566 -6.893721 139.999832
[Rope1_Seg06]
26 139.999954 0.000119 -0.000060 -4.228305 12.511314 -0.725896 139.999954
27 139.999954 0.000119 -0.000060 -4.540482 10.700034 0.416425 139.999954
[Rope1_Seg07]
26 139.999985 0.000060 0.000000 -12.362947 22.426241 13.165841 139.999985
27 139.999985 0.000060 0.000000 -11.315469 17.398241 13.517052 139.999985
[Rope1_Seg09]
26 121.602913 0.000119 -0.000089 -89.793175 -1.359789 0.847147 121.602913
27 121.602913 0.000119 -0.000089 -89.793175 -1.359789 0.847147 121.602913
[L_mid_hand01]
26 103.859421 1.038730 8.195221 106.855484 -31.239275 -9.461397 104.187431
27 103.859421 1.038730 8.195221 106.855484 -31.239275 -9.461397 104.187431
[L_mid_hand02]
26 105.572853 -4.139662 -10.864139 -142.331345 25.752670 -28.774628 106.211075
27 105.572853 -4.139662 -10.864139 -142.331345 25.752670 -28.774628 106.211075
[L_mid_hand03]
26 104.641464 17.579376 -3.913581 -16.122810 9.734291 34.223598 106.179977
27 104.641464 17.579376 -3.913581 -16.122810 9.734291 34.223598 106.179977
[null_rope02_connect]
26 328.732849 0.000179 -0.000119 -144.206802 -66.671532 45.954525 328.732849
27 328.732849 0.000179 -0.000119 -155.128494 -70.543755 55.464378 328.732849
[Rope2_Seg01]
26 -0.000145 -0.000025 -0.000025 -73.091087 -24.227772 -68.845680 0.000149
27 -0.000146 -0.000020 -0.000020 -74.952843 -25.886442 -71.019043 0.000149
[Rope2_Seg02]
26 139.999741 -0.000060 -0.000119 -4.159767 -1.872767 -1.187551 139.999756
27 139.999741 -0.000060 -0.000119 -7.197029 -3.625235 -2.100730 139.999756
[Rope2_Seg03]
26 140.000107 0.000030 0.000000 -9.993676 -3.737767 -2.776337 140.000107
27 140.000107 0.000030 0.000000 -29.372446 -10.434912 -8.066674 140.000107
[Rope2_Seg04]
26 139.999802 0.000000 -0.000060 -58.861572 -43.990730 -68.816620 139.999802
27 139.999802 0.000000 -0.000060 -43.194016 -23.491121 -91.946312 139.999802
[Rope2_Seg05]
26 139.999985 -0.000060 0.000119 -19.620049 42.368523 -57.896542 139.999985
27 139.999985 -0.000060 0.000119 -1.154903 22.840075 -23.758570 139.999985
[Rope2_Seg06]
26 139.999893 -0.000030 -0.000119 -3.584641 7.241557 0.503549 139.999893
27 139.999893 -0.000030 -0.000119 0.836429 6.871564 -4.760591 139.999893
[Rope2_Seg07]
26 139.999893 0.000060 -0.000060 -0.763510 4.662009 -1.529299 139.999893
27 139.999893 0.000060 -0.000060 1.646503 4.456034 -4.058469 139.999893
[Rope2_Seg09]
26 121.338966 0.000089 -0.000060 33.793236 -1.359788 -0.847141 121.338966
27 121.338966 0.000089 -0.000060 33.793236 -1.359788 -0.847141 121.338966
[R_mid_hand01]
26 104.680779 11.144459 -10.335981 -41.523792 25.424656 28.595957 105.778534
27 104.680779 11.144459 -10.335981 -41.523792 25.424656 28.595957 105.778534
[R_mid_hand02]
26 104.070427 2.443552 8.231699 72.847389 -32.746803 10.013901 104.424065
27 104.070427 2.443552 8.231699 72.847389 -32.746803 10.013901 104.424065
[R_mid_hand03]
26 106.028137 -11.221827 -5.996406 -167.901306 10.259192 -37.009720 106.788818
27 106.028137 -11.221827 -5.996406 -167.901306 10.259192 -37.009720 106.788818
[spine02]
26 129.756927 0.001550 0.000119 0.001147 -1.797837 -7.854275 129.756927
27 129.756927 0.001550 0.000119 0.001147 -1.797837 -7.854275 129.756927
[spine03]
26 79.115631 0.000000 -0.000119 1.459971 -2.848092 23.765965 79.115631
27 79.115631 0.000000 -0.000119 1.459971 -2.848092 23.765963 79.115631
[pelvis]
26 169.435242 0.051022 0.000000 -0.000005 0.000003 -4.322055 169.435257
27 169.435242 0.051022 0.000000 -0.000005 0.000003 -4.322055 169.435257
[null_rope03_connect]
26 -1.257226 -2.466202 137.391083 80.558701 67.358826 -26.476206 137.418976
27 -1.257226 -2.466202 137.391083 79.070251 66.639709 -27.891903 137.418976
[null_rope04_connect]
26 -1.259640 -2.480268 -137.844437 80.558701 67.358826 -26.476206 137.872513
27 -1.259640 -2.480268 -137.844437 79.070251 66.639709 -27.891903 137.872513
[Rope3_Seg01]
26 0.000130 0.000000 -0.000013 -127.209763 1.032553 63.839485 0.000131
27 0.000135 0.000000 -0.000010 -129.107071 4.142438 61.696838 0.000135
[Rope3_Seg02]
26 139.999924 -0.000119 0.000060 -0.417577 -2.998190 -3.079921 139.999924
27 139.999924 -0.000119 0.000060 0.277935 -1.683161 -2.975425 139.999924
[Rope3_Seg03]
26 139.999924 -0.000119 0.000119 -0.350598 -3.443859 -3.595444 139.999924
27 139.999924 -0.000119 0.000119 0.283924 -1.973972 -3.456346 139.999924
[Rope3_Seg04]
26 139.999924 0.000119 0.000000 -0.317970 -4.562417 -4.907112 139.999924
27 139.999924 0.000119 0.000000 0.353008 -2.385106 -4.508393 139.999924
[Rope3_Seg05]
26 139.999924 -0.000238 0.000060 0.120795 -6.540671 -7.287192 139.999924
27 139.999924 -0.000238 0.000060 0.691485 -3.022002 -6.233647 139.999924
[Rope3_Seg06]
26 139.999893 -0.000119 -0.000060 0.338026 -1.877642 -1.809389 139.999893
27 139.999893 -0.000119 -0.000060 0.230341 -2.713975 -2.759588 139.999893
[Rope3_Seg07]
26 139.999771 0.000060 -0.000119 0.717790 3.365320 4.318521 139.999771
27 139.999771 0.000060 -0.000119 -0.137862 -1.837154 0.988161 139.999771
[Rope3_Seg08]
26 139.999985 -0.000060 0.000000 0.610580 1.740568 2.306166 139.999985
27 139.999985 -0.000060 0.000000 0.203554 -1.610208 -0.288096 139.999985
[Rope3_Seg09]
26 90.185997 -0.000179 -0.000060 89.793228 -1.359877 -0.847183 90.185997
27 90.185997 -0.000179 -0.000060 89.793228 -1.359877 -0.847183 90.185997
[R_rear_hand01]
26 103.366196 -6.073594 -10.757982 -161.551193 16.666374 -30.088671 104.101845
27 103.366196 -6.073594 -10.757982 -161.551193 16.666374 -30.088671 104.101845
[R_rear_hand02]
26 100.509819 12.039542 -7.992327 -34.280552 19.289745 28.875523 101.543350
27 100.509819 12.039542 -7.992327 -34.280552 19.289745 28.875523 101.543350
[R_rear_hand03]
26 101.539970 5.215704 5.435467 83.366440 -30.933914 7.284830 101.819031
27 101.539970 5.215704 5.435467 83.366440 -30.933914 7.284830 101.819031
[Rope4_Seg01]
26 0.000011 -0.000496 -0.000153 37.000721 10.461643 41.820457 0.000519
27 0.000011 -0.000519 -0.000153 36.505997 15.722988 46.146690 0.000541
[Rope4_Seg02]
26 139.999985 0.000060 0.000119 6.196182 10.688930 19.279266 139.999985
27 139.999985 0.000060 0.000119 4.497192 4.158477 15.569782 139.999985
[Rope4_Seg03]
26 139.999924 0.000000 -0.000238 1.429720 7.444554 11.423906 139.999924
27 139.999924 0.000000 -0.000238 1.371098 2.590353 8.763139 139.999924
[Rope4_Seg04]
26 139.999985 0.000000 0.000119 0.032967 4.843305 7.532624 139.999985
27 139.999985 0.000000 0.000119 0.467928 1.370720 5.444998 139.999985
[Rope4_Seg05]
26 139.999802 -0.000060 -0.000119 -0.036523 1.441585 1.682927 139.999802
27 139.999802 -0.000060 -0.000119 0.140227 1.418868 2.001704 139.999802
[Rope4_Seg06]
26 139.999924 0.000000 0.000060 0.340962 -0.216223 -1.571754 139.999924
27 139.999924 0.000000 0.000060 0.121691 2.048945 0.350112 139.999924
[Rope4_Seg07]
26 139.999802 0.000000 0.000000 0.648617 -1.482619 -4.474229 139.999802
27 139.999802 0.000000 0.000000 0.203868 2.895635 -0.220720 139.999802
[Rope4_Seg08]
26 139.999924 0.000000 0.000119 -1.277376 -0.378476 -2.150690 139.999924
27 139.999924 0.000000 0.000119 -1.399938 2.216127 0.682025 139.999924
[Rope4_Seg09]
26 90.185791 0.000060 0.000060 -135.617828 2.228885 0.850567 90.185791
27 90.185791 0.000060 0.000060 -135.617828 2.228885 0.850567 90.185791
[L_rear_hand01]
26 101.696655 -8.392275 -7.654577 -34.454281 -18.946800 151.655121 102.329041
27 101.696655 -8.392275 -7.654577 -34.454281 -18.946800 151.655121 102.329041
[L_rear_hand02]
26 102.726799 -1.568258 5.773216 83.407906 30.330435 172.796509 102.900848
27 102.726799 -1.568258 5.773216 83.407906 30.330435 172.796509 102.900848
[L_rear_hand03]
26 104.552910 9.721220 -10.420293 -161.379868 -16.473232 -150.512238 105.519653
27 104.552910 9.721220 -10.420293 -161.379868 -16.473232 -150.512238 105.519653
